<?xml version="1.0" encoding="UTF-8" standalone="no"?>
<svg
   xmlns:dc="http://purl.org/dc/elements/1.1/"
   xmlns:cc="http://creativecommons.org/ns#"
   xmlns:rdf="http://www.w3.org/1999/02/22-rdf-syntax-ns#"
   xmlns:svg="http://www.w3.org/2000/svg"
   xmlns="http://www.w3.org/2000/svg"
   xmlns:sodipodi="http://sodipodi.sourceforge.net/DTD/sodipodi-0.dtd"
   xmlns:inkscape="http://www.inkscape.org/namespaces/inkscape"
   width="128"
   height="64"
   viewBox="0 0 33.866666 16.933334"
   version="1.1"
   id="svg8"
   inkscape:version="1.0.2 (e86c870879, 2021-01-15, custom)"
   sodipodi:docname="edit_document_info.svg">
  <defs
     id="defs2" />
  <sodipodi:namedview
     id="base"
     pagecolor="#ffffff"
     bordercolor="#666666"
     borderopacity="1.0"
     inkscape:pageopacity="0.0"
     inkscape:pageshadow="2"
     inkscape:zoom="2.8284271"
     inkscape:cx="-62.844671"
     inkscape:cy="17.539667"
     inkscape:document-units="px"
     inkscape:current-layer="g869"
     showgrid="true"
     units="px"
     inkscape:window-width="1920"
     inkscape:window-height="993"
     inkscape:window-x="0"
     inkscape:window-y="0"
     inkscape:window-maximized="1"
     inkscape:snap-bbox="true"
     inkscape:snap-bbox-midpoints="false"
     inkscape:bbox-nodes="true"
     inkscape:snap-nodes="true"
     inkscape:snap-others="false"
     inkscape:snap-global="true"
     inkscape:document-rotation="0">
    <inkscape:grid
       type="xygrid"
       id="grid4504" />
  </sodipodi:namedview>
  <metadata
     id="metadata5">
    <rdf:RDF>
      <cc:Work
         rdf:about="">
        <dc:format>image/svg+xml</dc:format>
        <dc:type
           rdf:resource="http://purl.org/dc/dcmitype/StillImage" />
        <dc:title />
      </cc:Work>
    </rdf:RDF>
  </metadata>
  <g
     inkscape:label="Livello 1"
     inkscape:groupmode="layer"
     id="layer1"
     transform="translate(0,-270.54165)">
    <g
       id="g961"
       transform="translate(0.76145843,0.19165451)">
      <g
         id="g4512"
         transform="matrix(0.66329054,0,0,0.66289281,-4.0095902,90.711135)"
         style="fill:#ffffff;fill-opacity:1;stroke-width:0.398917;stroke-miterlimit:4;stroke-dasharray:none">
        <g
           id="g884"
           transform="translate(-2.3934595)">
          <g
             id="g858"
             transform="translate(13.961417,0.39914205)">
            <path
               sodipodi:nodetypes="ccccc"
               inkscape:connector-curvature="0"
               id="path4506-3-6"
               d="m 7.8887776,293.54348 v -21.15424 l 15.9556684,5e-5 c 0,0 -6.7e-5,14.17069 -6.7e-5,21.15419 z"
               style="fill:#ffffff;fill-opacity:1;stroke:#1a1a1a;stroke-width:0.39903;stroke-linecap:round;stroke-linejoin:round;stroke-miterlimit:4;stroke-dasharray:none;stroke-opacity:1" />
            <path
               sodipodi:nodetypes="ccccc"
               inkscape:connector-curvature="0"
               id="path4506-3"
               d="m 8.6865679,294.34175 v -21.15424 l 15.9556661,5e-5 c 0,0 -6.7e-5,14.17069 -6.7e-5,21.15419 z"
               style="fill:#ffffff;fill-opacity:1;stroke:#1a1a1a;stroke-width:0.39903;stroke-linecap:round;stroke-linejoin:round;stroke-miterlimit:4;stroke-dasharray:none;stroke-opacity:1" />
            <path
               sodipodi:nodetypes="ccccc"
               inkscape:connector-curvature="0"
               id="path4506-36"
               d="m 9.4843584,295.14 v -21.15422 l 15.9557326,5e-5 c 0,0 -6.8e-5,14.17067 -6.8e-5,21.15417 z"
               style="fill:#ffffff;fill-opacity:1;stroke:#1a1a1a;stroke-width:0.399031;stroke-linecap:round;stroke-linejoin:round;stroke-miterlimit:4;stroke-dasharray:none;stroke-opacity:1" />
            <path
               style="fill:none;stroke:#1a1a1a;stroke-width:0.399014;stroke-linecap:round;stroke-linejoin:miter;stroke-miterlimit:4;stroke-dasharray:none;stroke-opacity:1"
               d="M 12.476001,286.75823 H 22.44838"
               id="path842-7"
               sodipodi:nodetypes="cc" />
            <path
               style="fill:none;stroke:#1a1a1a;stroke-width:0.399014;stroke-linecap:round;stroke-linejoin:miter;stroke-miterlimit:4;stroke-dasharray:none;stroke-opacity:1"
               d="M 12.476001,284.76255 H 22.44838"
               id="path844-5"
               sodipodi:nodetypes="cc" />
            <path
               style="fill:none;stroke:#1a1a1a;stroke-width:0.399014;stroke-linecap:round;stroke-linejoin:miter;stroke-miterlimit:4;stroke-dasharray:none;stroke-opacity:1"
               d="M 12.476001,282.76689 H 22.44838"
               id="path848-3"
               sodipodi:nodetypes="cc" />
            <path
               style="fill:none;stroke:#1a1a1a;stroke-width:0.399014;stroke-linecap:round;stroke-linejoin:miter;stroke-miterlimit:4;stroke-dasharray:none;stroke-opacity:1"
               d="M 12.476001,280.77121 H 22.44838"
               id="path850-5"
               sodipodi:nodetypes="cc" />
            <path
               style="fill:none;stroke:#1a1a1a;stroke-width:0.399014;stroke-linecap:round;stroke-linejoin:miter;stroke-miterlimit:4;stroke-dasharray:none;stroke-opacity:1"
               d="M 12.476001,288.7539 H 22.44838"
               id="path842-6-6"
               sodipodi:nodetypes="cc" />
          </g>
          <g
             id="g869"
             transform="translate(0.79779017,-2.5944426)">
            <ellipse
               style="fill:#0aa9ff;fill-opacity:1;stroke:#f9ffff;stroke-width:0.798029;stroke-linecap:round;stroke-linejoin:round;stroke-miterlimit:4;stroke-dasharray:none;stroke-opacity:1"
               id="path860"
               cx="36.808754"
               cy="280.77106"
               rx="5.9834261"
               ry="5.9870162" />
            <g
               aria-label="i"
               transform="scale(0.99970009,1.0003)"
               id="text864"
               style="font-size:11.7044px;line-height:1.25;font-family:car;-inkscape-font-specification:car;fill:#fffffd;fill-opacity:1;stroke-width:0.159174">
              <path
                 d="m 37.346489,277.68471 q -0.316019,0 -0.526698,-0.16386 -0.198975,-0.16386 -0.198975,-0.50329 0,-0.40965 0.222384,-0.63204 0.234088,-0.22238 0.58522,-0.22238 0.304314,0 0.514994,0.16386 0.210679,0.15216 0.210679,0.50329 0,0.45647 -0.257497,0.65545 -0.257497,0.19897 -0.550107,0.19897 z m -0.749081,7.52593 q -0.514994,0 -0.807604,-0.32772 -0.280906,-0.32772 -0.280906,-0.80761 0,-0.22238 0.03511,-0.52669 0.04682,-0.30432 0.09363,-0.62034 0.05852,-0.32772 0.117044,-0.57351 l 0.456471,-2.15361 q 0.04682,-0.22239 0.04682,-0.36284 0,-0.31602 -0.18727,-0.39795 -0.175566,-0.0936 -0.50329,-0.0936 h -0.163861 l 0.105339,-0.5267 h 2.282358 l -0.807603,3.76882 q -0.03511,0.15215 -0.07023,0.38624 -0.03511,0.23409 -0.07023,0.46818 -0.02341,0.23409 -0.02341,0.39795 0,0.57351 0.386245,0.57351 0.187271,0 0.386246,-0.0819 0.198974,-0.0819 0.421358,-0.21068 l 0.222384,0.36284 q -0.257497,0.24579 -0.702264,0.49158 -0.433063,0.23409 -0.936352,0.23409 z"
                 style="font-style:italic;font-variant:normal;font-weight:500;font-stretch:normal;font-size:11.7044px;font-family:'Noto Serif';-inkscape-font-specification:'Noto Serif Medium Italic';fill:#fffffd;fill-opacity:1;stroke-width:0.159174"
                 id="path847" />
            </g>
          </g>
        </g>
      </g>
    </g>
  </g>
</svg>
